<svg width="30" height="21" viewBox="0 0 30 21" fill="none" xmlns="http://www.w3.org/2000/svg">
<path d="M29.3333 10.7733C29.3364 10.9181 29.2893 11.0594 29.2 11.1733L22.3733 20.3067C22.3112 20.3904 22.231 20.4591 22.1387 20.5076C22.0463 20.5561 21.9442 20.5831 21.84 20.5867H8.17335C8.06684 20.5851 7.96212 20.5591 7.86732 20.5105C7.77251 20.4619 7.69017 20.3922 7.62668 20.3067L0.800013 11.1733C0.715465 11.0571 0.669922 10.9171 0.669922 10.7733C0.669922 10.6296 0.715465 10.4896 0.800013 10.3733L7.62668 1.24C7.69085 1.15617 7.77365 1.08843 7.86854 1.04214C7.96342 0.995856 8.06778 0.972299 8.17335 0.973336H21.84C21.9433 0.974347 22.0451 0.998887 22.1375 1.04509C22.2299 1.0913 22.3105 1.15796 22.3733 1.24L29.2 10.3733C29.2874 10.4883 29.3343 10.6289 29.3333 10.7733V10.7733ZM21.5067 19.2533L27.84 10.7733L21.5067 2.30667H8.50668L2.16001 10.7733L8.50668 19.2533H21.5067Z" fill="#95E1D3"></path>
<path d="M21.7733 10.7733C21.7764 10.9181 21.7293 11.0594 21.64 11.1733L18.5867 15.2667C18.5239 15.3487 18.4432 15.4154 18.3508 15.4616C18.2584 15.5078 18.1566 15.5323 18.0533 15.5333H11.9467C11.8434 15.5323 11.7416 15.5078 11.6492 15.4616C11.5568 15.4154 11.4761 15.3487 11.4133 15.2667L8.33333 11.1733C8.24245 11.0598 8.19293 10.9187 8.19293 10.7733C8.19293 10.6279 8.24245 10.4868 8.33333 10.3733L11.3867 6.29333C11.4472 6.20893 11.5275 6.14055 11.6204 6.09409C11.7133 6.04763 11.8161 6.02448 11.92 6.02666H18.0267C18.1305 6.02448 18.2334 6.04763 18.3263 6.09409C18.4192 6.14055 18.4994 6.20893 18.56 6.29333L21.6667 10.3733C21.7446 10.4916 21.7821 10.632 21.7733 10.7733ZM17.6667 14.2L20.3333 10.7733L17.6667 7.33333H12.3333L9.66667 10.7733L12.3333 14.2H17.6667Z" fill="#95E1D3"></path>
</svg>
