<svg width="38" height="38" viewBox="0 0 38 38" fill="none" xmlns="http://www.w3.org/2000/svg">
<path d="M19 37.0425C15.4315 37.0425 11.9432 35.9843 8.97612 34.0018C6.00905 32.0193 3.69649 29.2014 2.3309 25.9046C0.965307 22.6077 0.608005 18.98 1.30418 15.4801C2.00035 11.9802 3.71873 8.76531 6.24202 6.24202C8.76531 3.71873 11.9802 2.00035 15.4801 1.30418C18.98 0.608005 22.6077 0.965307 25.9046 2.3309C29.2014 3.69649 32.0193 6.00905 34.0018 8.97612C35.9843 11.9432 37.0425 15.4315 37.0425 19C37.0379 23.7837 35.1355 28.3702 31.7529 31.7529C28.3702 35.1355 23.7837 37.0379 19 37.0425V37.0425ZM19 2.7075C15.7776 2.7075 12.6277 3.66304 9.94837 5.45328C7.26908 7.24352 5.18083 9.78806 3.94769 12.7651C2.71455 15.7422 2.3919 19.0181 3.02055 22.1785C3.6492 25.3389 5.20091 28.242 7.47946 30.5205C9.75801 32.7991 12.6611 34.3508 15.8215 34.9794C18.9819 35.6081 22.2578 35.2854 25.2349 34.0523C28.2119 32.8192 30.7565 30.7309 32.5467 28.0516C34.337 25.3723 35.2925 22.2223 35.2925 19C35.2832 14.6818 33.5638 10.5431 30.5103 7.48967C27.4569 4.43624 23.3182 2.71674 19 2.7075Z" fill="#95E1D3"></path>
<path d="M12.1925 26C11.2407 26 10.3102 25.7178 9.51883 25.1889C8.72741 24.6601 8.11058 23.9085 7.74634 23.0292C7.38209 22.1498 7.28679 21.1822 7.47248 20.2486C7.65817 19.3151 8.11652 18.4576 8.78956 17.7846C9.4626 17.1115 10.3201 16.6532 11.2536 16.4675C12.1872 16.2818 13.1548 16.3771 14.0342 16.7413C14.9135 17.1056 15.6652 17.7224 16.194 18.5138C16.7228 19.3052 17.005 20.2357 17.005 21.1875C17.005 21.8195 16.8805 22.4453 16.6387 23.0292C16.3968 23.613 16.0423 24.1436 15.5955 24.5905C15.1486 25.0373 14.6181 25.3918 14.0342 25.6337C13.4503 25.8755 12.8245 26 12.1925 26V26ZM12.1925 18.125C11.5831 18.1253 10.9877 18.3073 10.4823 18.6478C9.97699 18.9884 9.58472 19.4719 9.35572 20.0366C9.12672 20.6014 9.0714 21.2216 9.19684 21.8179C9.32227 22.4142 9.62276 22.9596 10.0599 23.3842C10.4969 23.8088 11.0508 24.0933 11.6505 24.2014C12.2502 24.3095 12.8685 24.2363 13.4264 23.991C13.9842 23.7457 14.4562 23.3396 14.782 22.8246C15.1077 22.3096 15.2724 21.7091 15.255 21.1C15.2504 20.2892 14.9263 19.5129 14.3529 18.9396C13.7796 18.3662 13.0033 18.0421 12.1925 18.0375V18.125Z" fill="#95E1D3"></path>
<path d="M25.8075 26C24.8557 26 23.9252 25.7178 23.1338 25.1889C22.3424 24.6601 21.7256 23.9085 21.3613 23.0292C20.9971 22.1498 20.9018 21.1822 21.0875 20.2486C21.2732 19.3151 21.7315 18.4576 22.4045 17.7846C23.0776 17.1115 23.9351 16.6532 24.8686 16.4675C25.8022 16.2818 26.7698 16.3771 27.6492 16.7413C28.5285 17.1056 29.2801 17.7224 29.8089 18.5138C30.3378 19.3052 30.62 20.2357 30.62 21.1875C30.62 22.4639 30.113 23.6879 29.2104 24.5905C28.3079 25.493 27.0839 26 25.8075 26ZM25.8075 18.125C25.2018 18.125 24.6097 18.3046 24.1061 18.6411C23.6024 18.9776 23.2099 19.4559 22.9781 20.0155C22.7463 20.5751 22.6857 21.1909 22.8038 21.785C22.922 22.379 23.2137 22.9247 23.642 23.353C24.0703 23.7813 24.616 24.073 25.21 24.1912C25.8041 24.3093 26.4199 24.2487 26.9795 24.0169C27.5391 23.7851 28.0174 23.3926 28.3539 22.8889C28.6904 22.3853 28.87 21.7932 28.87 21.1875C28.8817 20.778 28.8111 20.3704 28.6625 19.9886C28.5138 19.6069 28.2901 19.2589 28.0045 18.9652C27.719 18.6715 27.3774 18.438 27 18.2787C26.6227 18.1194 26.2171 18.0373 25.8075 18.0375V18.125Z" fill="#95E1D3"></path>
<path d="M2.23499 16.13C2.03328 16.13 1.83774 16.0604 1.68148 15.9328C1.52522 15.8053 1.41783 15.6276 1.37749 15.43C1.3357 15.2031 1.38344 14.9687 1.51069 14.7762C1.63795 14.5837 1.83482 14.448 2.05999 14.3975C2.25249 14.3625 21.1875 10.25 26.28 3.25C26.3476 3.15673 26.433 3.07774 26.5313 3.01755C26.6295 2.95737 26.7387 2.91718 26.8525 2.89929C26.9663 2.88141 27.0826 2.88618 27.1945 2.91333C27.3065 2.94048 27.412 2.98947 27.505 3.0575C27.6896 3.19694 27.8128 3.40259 27.8487 3.63111C27.8846 3.85964 27.8304 4.09318 27.6975 4.2825C22.2025 11.825 3.24999 15.9375 2.42749 16.1125L2.23499 16.13Z" fill="#95E1D3"></path>
<path d="M31.25 13.225C26.9146 13.0804 22.6431 12.1371 18.65 10.4425C18.4365 10.3497 18.2686 10.1758 18.1833 9.95923C18.098 9.74263 18.1022 9.501 18.195 9.2875C18.2878 9.074 18.4617 8.90612 18.6783 8.82079C18.8949 8.73546 19.1365 8.73967 19.35 8.8325C19.4375 8.8325 27.645 12.49 34.54 11.195C34.7694 11.1537 35.0059 11.2039 35.1988 11.3347C35.3918 11.4655 35.5259 11.6666 35.5725 11.895C35.6134 12.1223 35.5628 12.3566 35.4316 12.5467C35.3005 12.7369 35.0995 12.8675 34.8725 12.91C33.678 13.1317 32.4648 13.2372 31.25 13.225V13.225Z" fill="#95E1D3"></path>
<path d="M21.87 21.975H16.13C15.8979 21.975 15.6754 21.8828 15.5113 21.7187C15.3472 21.5546 15.255 21.3321 15.255 21.1C15.2595 20.8693 15.3531 20.6494 15.5162 20.4862C15.6794 20.3231 15.8993 20.2295 16.13 20.225H21.87C22.1007 20.2295 22.3206 20.3231 22.4838 20.4862C22.6469 20.6494 22.7405 20.8693 22.745 21.1C22.745 21.3321 22.6528 21.5546 22.4887 21.7187C22.3246 21.8828 22.1021 21.975 21.87 21.975Z" fill="#95E1D3"></path>
<path d="M8.255 21.975H1.9725C1.74044 21.975 1.51788 21.8828 1.35379 21.7187C1.18969 21.5546 1.0975 21.3321 1.0975 21.1C1.10198 20.8693 1.19561 20.6494 1.35874 20.4862C1.52188 20.3231 1.74184 20.2295 1.9725 20.225H8.255C8.48707 20.225 8.70963 20.3172 8.87372 20.4813C9.03782 20.6454 9.13 20.8679 9.13 21.1C9.13 21.3321 9.03782 21.5546 8.87372 21.7187C8.70963 21.8828 8.48707 21.975 8.255 21.975Z" fill="#95E1D3"></path>
<path d="M36.045 21.975H29.745C29.5129 21.975 29.2904 21.8828 29.1263 21.7187C28.9622 21.5546 28.87 21.3321 28.87 21.1C28.87 20.8679 28.9622 20.6454 29.1263 20.4813C29.2904 20.3172 29.5129 20.225 29.745 20.225H36.045C36.2771 20.225 36.4996 20.3172 36.6637 20.4813C36.8278 20.6454 36.92 20.8679 36.92 21.1C36.92 21.3321 36.8278 21.5546 36.6637 21.7187C36.4996 21.8828 36.2771 21.975 36.045 21.975Z" fill="#95E1D3"></path>
</svg>
