<svg width="171" height="42" viewBox="0 0 171 42" fill="none" xmlns="http://www.w3.org/2000/svg">
<g clip-path="url('#clip0_1_54')">
<rect x="129" width="42" height="42" fill="#F9EFCF"></rect>
<path d="M150.003 36.8217C145.698 36.8217 145.191 36.7989 143.511 36.7254C142.201 36.6824 140.908 36.416 139.687 35.9379C138.643 35.5315 137.694 34.9122 136.902 34.1196C136.11 33.327 135.491 32.3783 135.085 31.3337C134.625 30.1087 134.377 28.8145 134.351 27.5064C134.253 25.8299 134.253 25.2804 134.253 21.0087C134.253 16.6914 134.276 16.1874 134.351 14.5162C134.378 13.2098 134.626 11.9174 135.085 10.6942C135.49 9.64825 136.11 8.69842 136.903 7.90534C137.696 7.11226 138.646 6.49335 139.692 6.08816C140.915 5.62651 142.208 5.37791 143.514 5.35316C145.186 5.25866 145.735 5.25866 150.003 5.25866C154.343 5.25866 154.842 5.28141 156.496 5.35316C157.805 5.37766 159.103 5.62616 160.328 6.08816C161.374 6.49382 162.324 7.11289 163.117 7.90591C163.911 8.69894 164.53 9.64852 164.936 10.6942C165.403 11.9367 165.654 13.2492 165.673 14.5739C165.771 16.2504 165.771 16.7982 165.771 21.0682C165.771 25.3382 165.746 25.8982 165.673 27.5554C165.647 28.8648 165.398 30.1601 164.938 31.3862C164.531 32.4315 163.911 33.3807 163.117 34.1737C162.324 34.9666 161.374 35.5859 160.328 35.9922C159.103 36.4507 157.81 36.6992 156.503 36.7254C154.832 36.8217 154.284 36.8217 150.003 36.8217V36.8217ZM149.944 8.02891C145.663 8.02891 145.219 8.04991 143.548 8.12516C142.55 8.13821 141.561 8.32229 140.625 8.66941C139.943 8.93106 139.322 9.33285 138.805 9.84888C138.287 10.3649 137.883 10.9837 137.619 11.6654C137.269 12.6104 137.085 13.6097 137.074 14.6177C136.982 16.3134 136.982 16.7579 136.982 21.0087C136.982 25.2087 136.997 25.7179 137.074 27.4032C137.09 28.4007 137.274 29.3894 137.619 30.3257C138.154 31.7029 139.246 32.7914 140.627 33.3199C141.562 33.6692 142.55 33.8534 143.548 33.8642C145.242 33.9622 145.688 33.9622 149.944 33.9622C154.237 33.9622 154.681 33.9412 156.338 33.8642C157.337 33.8521 158.325 33.668 159.261 33.3199C159.94 33.0563 160.557 32.6542 161.072 32.1393C161.587 31.6244 161.989 31.008 162.253 30.3292C162.603 29.3842 162.787 28.3832 162.798 27.3752H162.817C162.892 25.7022 162.892 25.2559 162.892 20.9807C162.892 16.7054 162.873 16.2557 162.798 14.5844C162.782 13.5877 162.598 12.6008 162.253 11.6654C161.99 10.9856 161.588 10.3681 161.073 9.85232C160.557 9.3365 159.94 8.93364 159.261 8.66941C158.325 8.31941 157.336 8.13741 156.338 8.12516C154.646 8.02891 154.203 8.02891 149.944 8.02891V8.02891ZM150.003 29.0919C148.403 29.0929 146.839 28.6194 145.508 27.7311C144.176 26.8429 143.139 25.5798 142.525 24.1017C141.912 22.6236 141.751 20.9968 142.063 19.4272C142.374 17.8575 143.144 16.4155 144.275 15.2835C145.406 14.1514 146.848 13.3802 148.417 13.0675C149.986 12.7547 151.613 12.9143 153.092 13.5262C154.57 14.1381 155.834 15.1748 156.724 16.5051C157.613 17.8355 158.088 19.3997 158.088 20.9999C158.086 23.144 157.233 25.1995 155.718 26.7163C154.202 28.233 152.148 29.0873 150.003 29.0919V29.0919ZM150.003 15.7464C148.965 15.7464 147.95 16.0543 147.087 16.6312C146.223 17.2081 145.55 18.028 145.153 18.9873C144.756 19.9466 144.652 21.0022 144.854 22.0206C145.057 23.039 145.557 23.9745 146.291 24.7087C147.025 25.4429 147.961 25.943 148.979 26.1455C149.998 26.3481 151.053 26.2441 152.013 25.8468C152.972 25.4494 153.792 24.7765 154.369 23.9132C154.946 23.0498 155.253 22.0348 155.253 20.9964C155.25 19.605 154.696 18.2715 153.712 17.2877C152.728 16.3038 151.395 15.7496 150.003 15.7464ZM158.403 14.4987C158.156 14.4977 157.911 14.448 157.682 14.3524C157.454 14.2567 157.246 14.117 157.072 13.9412C156.719 13.5861 156.522 13.1055 156.524 12.6052C156.526 12.1048 156.726 11.6257 157.081 11.2733C157.437 10.9208 157.917 10.7238 158.417 10.7257C158.918 10.7275 159.397 10.9281 159.749 11.2832C160.102 11.6383 160.299 12.1188 160.297 12.6192C160.295 13.1195 160.095 13.5986 159.739 13.9511C159.384 14.3035 158.904 14.5005 158.403 14.4987Z" fill="#F38281"></path>
</g>
<g clip-path="url('#clip1_1_54')">
<rect x="86" width="42" height="42" fill="#F9EFCF"></rect>
<path d="M104.673 26.4197C103.787 31.1902 102.709 35.7647 99.51 38.1535C98.5248 30.9435 100.961 25.5272 102.091 19.7785C100.163 16.436 102.324 9.7072 106.391 11.3645C111.396 13.405 102.056 23.793 108.327 25.0915C114.873 26.446 117.547 13.3962 113.487 9.1507C107.621 3.02395 96.4125 9.01245 97.7915 17.7852C98.1275 19.9307 100.278 20.5817 98.6508 23.5427C94.897 22.6835 93.777 19.635 93.9223 15.5697C94.1533 8.9197 99.727 4.2612 105.317 3.6172C112.387 2.8017 119.021 6.28945 119.936 13.1372C120.969 20.8652 116.746 29.2372 109.188 28.6335C107.138 28.4707 106.277 27.426 104.673 26.4197V26.4197Z" fill="#F38281"></path>
</g>
<g clip-path="url('#clip2_1_54')">
<rect x="43" width="42" height="42" fill="#F9EFCF"></rect>
<path d="M77.9913 11.704C79.56 10.7661 80.7338 9.2894 81.2935 7.54948C79.8194 8.42417 78.2066 9.0403 76.5248 9.37123C75.3905 8.17135 73.893 7.37784 72.2632 7.11304C70.6334 6.84823 68.9618 7.12683 67.506 7.90588C66.0502 8.68493 64.891 9.92119 64.2071 11.4241C63.5233 12.927 63.3527 14.6131 63.7218 16.2225C60.7361 16.0726 57.8152 15.2965 55.1489 13.9447C52.4826 12.5928 50.1303 10.6953 48.2448 8.37548C47.2859 10.0294 46.9925 11.9863 47.4241 13.8487C47.8558 15.7112 48.9801 17.3395 50.5688 18.403C49.3765 18.3647 48.2107 18.0418 47.1685 17.4615V17.556C47.1689 19.2902 47.769 20.9709 48.8672 22.3131C49.9654 23.6553 51.494 24.5763 53.1938 24.92C52.0879 25.2209 50.9279 25.2651 49.8023 25.0495C50.2831 26.541 51.2175 27.8453 52.4752 28.7802C53.733 29.7151 55.2512 30.234 56.818 30.2645C54.1577 32.3525 50.8724 33.4848 47.4905 33.4792C46.8903 33.4792 46.2918 33.4442 45.6968 33.376C49.131 35.5827 53.1279 36.754 57.21 36.75C60.0216 36.7693 62.809 36.2297 65.4102 35.1626C68.0115 34.0956 70.3748 32.5222 72.3628 30.534C74.3508 28.5458 75.924 26.1824 76.9909 23.581C78.0577 20.9797 78.5971 18.1923 78.5775 15.3807C78.5775 15.0552 78.5705 14.7315 78.5548 14.4095C80.0256 13.3466 81.295 12.0298 82.3033 10.521C80.933 11.1283 79.4796 11.5271 77.9913 11.704V11.704Z" fill="#F38281"></path>
</g>
<g clip-path="url('#clip3_1_54')">
<rect width="42" height="42" fill="#F38281"></rect>
<path d="M23.4448 36.7447V22.4017H28.2836L29.0028 16.786H23.4448V13.209C23.4448 11.5885 23.8963 10.479 26.2221 10.479H29.1691V5.47222C27.7352 5.31855 26.2939 5.24436 24.8518 5.24997C20.5748 5.24997 17.6383 7.86097 17.6383 12.6542V16.7755H12.8311V22.3912H17.6488V36.7447H23.4448Z" fill="white"></path>
</g>
<defs>
<clipPath id="clip0_1_54">
<rect width="42" height="42" fill="white" transform="translate(129)"></rect>
</clipPath>
<clipPath id="clip1_1_54">
<rect width="42" height="42" fill="white" transform="translate(86)"></rect>
</clipPath>
<clipPath id="clip2_1_54">
<rect width="42" height="42" fill="white" transform="translate(43)"></rect>
</clipPath>
<clipPath id="clip3_1_54">
<rect width="42" height="42" fill="white"></rect>
</clipPath>
</defs>
</svg>
