<svg width="56" height="56" viewBox="0 0 56 56" fill="none" xmlns="http://www.w3.org/2000/svg">
<path d="M19.6875 25.0834H5.10416C3.80964 25.0834 2.5677 24.5711 1.64961 23.6585C0.731516 22.7459 0.211868 21.507 0.204163 20.2125V5.62919C0.211816 4.33199 0.730522 3.0901 1.6478 2.17282C2.56507 1.25555 3.80696 0.73684 5.10416 0.729187H19.6875C20.9847 0.73684 22.2266 1.25555 23.1439 2.17282C24.0611 3.0901 24.5798 4.33199 24.5875 5.62919V20.2125C24.5798 21.507 24.0601 22.7459 23.142 23.6585C22.224 24.5711 20.982 25.0834 19.6875 25.0834V25.0834ZM5.10416 3.61669C4.5805 3.62422 4.08039 3.8356 3.71007 4.20593C3.33974 4.57625 3.12837 5.07635 3.12083 5.60002V20.1834C3.12083 20.7094 3.32979 21.2138 3.70173 21.5858C4.07368 21.9577 4.57815 22.1667 5.10416 22.1667H19.6875C20.2135 22.1667 20.718 21.9577 21.0899 21.5858C21.4619 21.2138 21.6708 20.7094 21.6708 20.1834V5.60002C21.6633 5.07635 21.4519 4.57625 21.0816 4.20593C20.7113 3.8356 20.2112 3.62422 19.6875 3.61669H5.10416Z" fill="#95E1D3"></path>
<path d="M50.8958 25.0833H36.3125C35.0129 25.0833 33.7666 24.5671 32.8477 23.6482C31.9287 22.7292 31.4125 21.4829 31.4125 20.1833V5.60001C31.4201 4.30281 31.9388 3.06092 32.8561 2.14365C33.7734 1.22637 35.0153 0.707665 36.3125 0.700012H50.8958C52.193 0.707665 53.4349 1.22637 54.3522 2.14365C55.2695 3.06092 55.7882 4.30281 55.7958 5.60001V20.1833C55.7958 21.4829 55.2796 22.7292 54.3606 23.6482C53.4417 24.5671 52.1954 25.0833 50.8958 25.0833V25.0833ZM36.3125 3.61668C35.7888 3.62421 35.2887 3.83559 34.9184 4.20592C34.5481 4.57624 34.3367 5.07635 34.3292 5.60001V20.1833C34.3292 20.7094 34.5381 21.2138 34.9101 21.5858C35.282 21.9577 35.7865 22.1667 36.3125 22.1667H50.8958C51.4218 22.1667 51.9263 21.9577 52.2983 21.5858C52.6702 21.2138 52.8792 20.7094 52.8792 20.1833V5.60001C52.8716 5.07635 52.6602 4.57624 52.2899 4.20592C51.9196 3.83559 51.4195 3.62421 50.8958 3.61668H36.3125Z" fill="#95E1D3"></path>
<path d="M19.6875 55.2709H5.10416C3.80696 55.2632 2.56507 54.7445 1.6478 53.8272C0.730522 52.9099 0.211816 51.6681 0.204163 50.3709V35.7875C0.211868 34.493 0.731516 33.2542 1.64961 32.3415C2.5677 31.4289 3.80964 30.9167 5.10416 30.9167H19.6875C20.9871 30.9167 22.2334 31.4329 23.1523 32.3519C24.0712 33.2708 24.5875 34.5171 24.5875 35.8167V50.4C24.5722 51.6921 24.0502 52.9266 23.1337 53.8376C22.2172 54.7486 20.9797 55.2633 19.6875 55.2709V55.2709ZM5.10416 33.8334C4.57815 33.8334 4.07368 34.0423 3.70173 34.4143C3.32979 34.7862 3.12083 35.2907 3.12083 35.8167V50.4C3.12837 50.9237 3.33974 51.4238 3.71007 51.7941C4.08039 52.1644 4.5805 52.3758 5.10416 52.3834H19.6875C20.2112 52.3758 20.7113 52.1644 21.0816 51.7941C21.4519 51.4238 21.6633 50.9237 21.6708 50.4V35.8167C21.6708 35.2907 21.4619 34.7862 21.0899 34.4143C20.718 34.0423 20.2135 33.8334 19.6875 33.8334H5.10416Z" fill="#95E1D3"></path>
<path d="M50.8958 55.2709H36.3125C35.0153 55.2632 33.7734 54.7445 32.8561 53.8272C31.9388 52.9099 31.4201 51.6681 31.4125 50.3709V35.7875C31.4202 34.493 31.9398 33.2542 32.8579 32.3415C33.776 31.4289 35.018 30.9167 36.3125 30.9167H50.8958C52.1954 30.9167 53.4417 31.4329 54.3606 32.3519C55.2796 33.2708 55.7958 34.5171 55.7958 35.8167V50.4C55.7806 51.6921 55.2585 52.9266 54.342 53.8376C53.4256 54.7486 52.188 55.2633 50.8958 55.2709V55.2709ZM36.3125 33.8042C35.7865 33.8042 35.282 34.0131 34.9101 34.3851C34.5381 34.757 34.3292 35.2615 34.3292 35.7875V50.3709C34.3367 50.8945 34.5481 51.3946 34.9184 51.765C35.2887 52.1353 35.7888 52.3467 36.3125 52.3542H50.8958C51.4195 52.3467 51.9196 52.1353 52.2899 51.765C52.6602 51.3946 52.8716 50.8945 52.8792 50.3709V35.7875C52.8792 35.2615 52.6702 34.757 52.2983 34.3851C51.9263 34.0131 51.4218 33.8042 50.8958 33.8042H36.3125Z" fill="#95E1D3"></path>
</svg>
