<svg width="22" height="16" viewBox="0 0 22 16" fill="none" xmlns="http://www.w3.org/2000/svg">
<path d="M15.39 11.31H11.2C11.0674 11.31 10.9402 11.2573 10.8465 11.1636C10.7527 11.0698 10.7 10.9426 10.7 10.81C10.7 10.6774 10.7527 10.5502 10.8465 10.4564C10.9402 10.3627 11.0674 10.31 11.2 10.31H15.39C15.5226 10.31 15.6498 10.3627 15.7436 10.4564C15.8373 10.5502 15.89 10.6774 15.89 10.81C15.89 10.9426 15.8373 11.0698 15.7436 11.1636C15.6498 11.2573 15.5226 11.31 15.39 11.31Z" fill="white"/>
<path d="M18.21 11C18.1509 11.014 18.0892 11.014 18.0301 11C17.9684 10.9778 17.9119 10.9434 17.8637 10.899C17.8156 10.8546 17.7769 10.8009 17.7499 10.7412C17.7228 10.6816 17.708 10.6171 17.7063 10.5516C17.7047 10.4861 17.7161 10.421 17.74 10.36L20.1201 3.99999C20.1671 3.87719 20.2607 3.7779 20.3805 3.72362C20.5003 3.66934 20.6367 3.66444 20.76 3.70999C20.8838 3.75929 20.9839 3.8542 21.0397 3.97514C21.0955 4.09609 21.1028 4.23384 21.06 4.35999L18.68 10.69C18.6397 10.7813 18.574 10.8591 18.4906 10.9141C18.4073 10.9691 18.3099 10.9989 18.21 11V11Z" fill="white"/>
<path d="M8.00001 11.19C7.89568 11.1907 7.79383 11.1582 7.7093 11.097C7.62476 11.0359 7.56195 10.9493 7.53001 10.85L4.39001 1.31H1.39001C1.25741 1.31 1.13023 1.25732 1.03646 1.16355C0.942693 1.06978 0.890015 0.942606 0.890015 0.809998C0.892575 0.678191 0.946075 0.552496 1.03929 0.459277C1.13251 0.366058 1.25821 0.312558 1.39001 0.309998H4.75001C4.85362 0.312207 4.9541 0.345927 5.03806 0.406667C5.12203 0.467407 5.18549 0.552285 5.22001 0.649998L8.51002 10.53C8.53193 10.5917 8.54127 10.6571 8.53748 10.7224C8.53369 10.7878 8.51685 10.8517 8.48796 10.9104C8.45906 10.9691 8.4187 11.0215 8.36924 11.0643C8.31979 11.1072 8.26225 11.1397 8.20001 11.16C8.13649 11.185 8.06809 11.1953 8.00001 11.19V11.19Z" fill="white"/>
<path d="M9.54004 15.69C8.9467 15.69 8.36668 15.5141 7.87333 15.1844C7.37998 14.8548 6.99546 14.3862 6.7684 13.8381C6.54134 13.2899 6.48193 12.6867 6.59768 12.1047C6.71344 11.5228 6.99916 10.9882 7.41872 10.5687C7.83828 10.1491 8.37283 9.8634 8.95477 9.74765C9.53671 9.63189 10.1399 9.6913 10.6881 9.91837C11.2363 10.1454 11.7048 10.5299 12.0344 11.0233C12.3641 11.5166 12.54 12.0967 12.54 12.69C12.54 13.4857 12.224 14.2487 11.6614 14.8113C11.0988 15.3739 10.3357 15.69 9.54004 15.69V15.69ZM9.54004 10.69C9.14448 10.69 8.7578 10.8073 8.4289 11.0271C8.1 11.2468 7.84366 11.5592 7.69228 11.9246C7.54091 12.2901 7.5013 12.6922 7.57847 13.0802C7.65564 13.4681 7.84612 13.8245 8.12583 14.1042C8.40553 14.3839 8.7619 14.5744 9.14986 14.6516C9.53782 14.7287 9.93995 14.6891 10.3054 14.5378C10.6709 14.3864 10.9832 14.13 11.203 13.8011C11.4227 13.4722 11.54 13.0856 11.54 12.69C11.54 12.1596 11.3293 11.6509 10.9543 11.2758C10.5792 10.9007 10.0705 10.69 9.54004 10.69Z" fill="white"/>
<path d="M17.05 15.69C16.4567 15.69 15.8767 15.5141 15.3833 15.1844C14.89 14.8548 14.5055 14.3862 14.2784 13.8381C14.0513 13.2899 13.9919 12.6867 14.1077 12.1047C14.2234 11.5228 14.5092 10.9882 14.9287 10.5687C15.3483 10.1491 15.8828 9.8634 16.4648 9.74765C17.0467 9.63189 17.6499 9.6913 18.1981 9.91837C18.7463 10.1454 19.2148 10.5299 19.5445 11.0233C19.8741 11.5166 20.05 12.0967 20.05 12.69C20.05 13.4857 19.734 14.2487 19.1714 14.8113C18.6088 15.3739 17.8457 15.69 17.05 15.69V15.69ZM17.05 10.69C16.6545 10.69 16.2678 10.8073 15.9389 11.0271C15.61 11.2468 15.3537 11.5592 15.2023 11.9246C15.0509 12.2901 15.0113 12.6922 15.0885 13.0802C15.1656 13.4681 15.3561 13.8245 15.6358 14.1042C15.9155 14.3839 16.2719 14.5744 16.6599 14.6516C17.0478 14.7287 17.45 14.6891 17.8154 14.5378C18.1809 14.3864 18.4932 14.13 18.713 13.8011C18.9328 13.4722 19.05 13.0856 19.05 12.69C19.05 12.1596 18.8393 11.6509 18.4643 11.2758C18.0892 10.9007 17.5805 10.69 17.05 10.69Z" fill="white"/>
</svg>
