<svg width="24" height="24" viewBox="0 0 24 24" fill="none" xmlns="http://www.w3.org/2000/svg">
<path d="M12.44 22.9867C10.6258 22.9883 8.83783 22.5539 7.22665 21.72C7.14874 21.6797 7.07951 21.6245 7.02294 21.5575C6.96636 21.4905 6.92354 21.413 6.89692 21.3294C6.8703 21.2458 6.86041 21.1578 6.86779 21.0704C6.87518 20.983 6.89971 20.8979 6.93999 20.82C6.98026 20.7421 7.03548 20.6729 7.10251 20.6163C7.16953 20.5597 7.24704 20.5169 7.33062 20.4903C7.41419 20.4637 7.50219 20.4538 7.58958 20.4611C7.67698 20.4685 7.76207 20.4931 7.83999 20.5333C9.99798 21.6312 12.4804 21.9111 14.8286 21.3214C17.1769 20.7316 19.2325 19.3121 20.6157 17.3249C21.999 15.3377 22.6164 12.9171 22.354 10.5102C22.0917 8.10321 20.9672 5.87249 19.1883 4.22999C17.4094 2.58749 15.0963 1.64415 12.6761 1.57419C10.2559 1.50424 7.89214 2.3124 6.02136 3.84941C4.15058 5.38643 2.89915 7.54847 2.49819 9.93625C2.09724 12.324 2.57384 14.7762 3.83999 16.84C3.9293 16.9927 3.95559 17.1742 3.91327 17.346C3.87095 17.5178 3.76335 17.6663 3.61332 17.76C3.53815 17.806 3.45462 17.8366 3.36755 17.8501C3.28047 17.8636 3.19159 17.8596 3.10604 17.8386C3.02049 17.8175 2.93997 17.7797 2.86913 17.7273C2.79829 17.6749 2.73853 17.609 2.69332 17.5333C1.23013 15.1902 0.673091 12.3934 1.12691 9.66849C1.58073 6.94359 3.01416 4.47825 5.15778 2.73584C7.30139 0.993436 10.0076 0.0939449 12.7677 0.206428C15.5279 0.318911 18.1519 1.43562 20.1467 3.34668C21.6871 4.77447 22.8005 6.60227 23.3625 8.62605C23.9246 10.6498 23.9131 12.79 23.3295 14.8077C22.746 16.8254 21.6131 18.6412 20.0576 20.0525C18.502 21.4637 16.5848 22.415 14.52 22.8C13.8341 22.9277 13.1377 22.9902 12.44 22.9867V22.9867Z" fill="#95E1D3"/>
<path d="M2.09333 23.68C1.83486 23.6751 1.58158 23.6067 1.35589 23.4806C1.13019 23.3546 0.939025 23.1749 0.799301 22.9574C0.659577 22.7399 0.575598 22.4913 0.554789 22.2336C0.533979 21.976 0.576982 21.7171 0.679993 21.48L2.70666 16.92C2.7821 16.7584 2.91801 16.6329 3.08512 16.5706C3.25222 16.5082 3.43712 16.514 3.59999 16.5867C3.76066 16.6595 3.88595 16.7929 3.94842 16.9578C4.0109 17.1228 4.00547 17.3058 3.93333 17.4667L1.89333 22.0267C1.86736 22.0613 1.85333 22.1034 1.85333 22.1467C1.85333 22.19 1.86736 22.2321 1.89333 22.2667C1.92245 22.3 1.9607 22.3241 2.00335 22.3359C2.046 22.3478 2.09118 22.3469 2.13333 22.3334L7.26666 20.5067C7.34881 20.4751 7.4365 20.4604 7.52446 20.4635C7.61242 20.4667 7.69885 20.4875 7.77855 20.5249C7.85824 20.5623 7.92957 20.6153 7.98825 20.6809C8.04692 20.7465 8.09173 20.8233 8.11999 20.9067C8.18004 21.0729 8.17163 21.2561 8.09662 21.4162C8.02162 21.5762 7.88615 21.6999 7.71999 21.76L2.62666 23.5867C2.45605 23.65 2.27531 23.6817 2.09333 23.68Z" fill="#95E1D3"/>
</svg>
