<svg width="22" height="35" viewBox="0 0 22 35" fill="none" xmlns="http://www.w3.org/2000/svg">
<path d="M10.685 16.265C9.55666 16.265 8.45366 15.9304 7.51547 15.3035C6.57729 14.6767 5.84607 13.7857 5.41427 12.7432C4.98247 11.7008 4.86949 10.5537 5.08962 9.44702C5.30975 8.34036 5.8531 7.32383 6.65096 6.52597C7.44881 5.72811 8.46535 5.18476 9.57201 4.96463C10.6787 4.7445 11.8258 4.85748 12.8682 5.28928C13.9107 5.72108 14.8017 6.4523 15.4285 7.39049C16.0554 8.32867 16.39 9.43167 16.39 10.56C16.39 12.0731 15.7889 13.5242 14.719 14.5941C13.6491 15.664 12.1981 16.265 10.685 16.265V16.265ZM10.685 6.60501C9.90277 6.60501 9.13812 6.83697 8.48772 7.27155C7.83732 7.70613 7.3304 8.32382 7.03106 9.0465C6.73171 9.76918 6.65339 10.5644 6.80599 11.3316C6.9586 12.0988 7.33528 12.8035 7.88839 13.3566C8.44151 13.9097 9.14622 14.2864 9.91342 14.439C10.6806 14.5916 11.4758 14.5133 12.1985 14.214C12.9212 13.9146 13.5389 13.4077 13.9735 12.7573C14.408 12.1069 14.64 11.3422 14.64 10.56C14.64 9.51108 14.2233 8.50511 13.4816 7.76341C12.7399 7.0217 11.7339 6.60501 10.685 6.60501Z" fill="#F38281"/>
<path d="M20.555 13.395H20.415C20.2001 13.341 20.013 13.2089 19.8901 13.0245C19.7672 12.8402 19.7172 12.6167 19.75 12.3975V12.1175C19.7558 11.9951 19.7558 11.8724 19.75 11.75C19.7672 11.5696 19.7672 11.3879 19.75 11.2075C19.75 10.7525 19.75 10.525 19.75 10.525C19.75 8.17188 18.8152 5.91513 17.1513 4.25121C15.4874 2.58729 13.2306 1.65251 10.8775 1.65251C8.52437 1.65251 6.26761 2.58729 4.6037 4.25121C2.93978 5.91513 2.005 8.17188 2.005 10.525C2.005 10.525 2.005 10.7525 2.005 11.085C2.05377 11.3175 2.13631 11.5415 2.25 11.75V12.1875V12.4675C2.26724 12.5824 2.26167 12.6996 2.23362 12.8124C2.20557 12.9251 2.15559 13.0312 2.08653 13.1247C2.01746 13.2181 1.93067 13.297 1.83111 13.3569C1.73154 13.4168 1.62116 13.4565 1.50625 13.4738C1.39134 13.491 1.27417 13.4854 1.16141 13.4574C1.04866 13.4293 0.942529 13.3794 0.84909 13.3103C0.755651 13.2412 0.67673 13.1544 0.616833 13.0549C0.556936 12.9553 0.517237 12.8449 0.500001 12.73V12.1C0.469599 11.815 0.469599 11.5275 0.500001 11.2425V10.7C0.500001 7.88275 1.61915 5.18088 3.61126 3.18877C5.60336 1.19667 8.30524 0.0775146 11.1225 0.0775146C13.9398 0.0775146 16.6416 1.19667 18.6337 3.18877C20.6258 5.18088 21.745 7.88275 21.745 10.7C21.745 10.7 21.745 10.9975 21.745 11.3475C21.7418 11.6354 21.7125 11.9224 21.6575 12.205L21.5 12.66C21.4694 12.8816 21.3535 13.0824 21.177 13.2197C21.0005 13.357 20.7773 13.4199 20.555 13.395Z" fill="#F38281"/>
<path d="M11 34.0625C10.8852 34.0639 10.7715 34.0413 10.666 33.9961C10.5605 33.9509 10.4656 33.8841 10.3875 33.8C1.1125 24.525 0.499999 11.155 0.377499 10.595C0.37281 10.4801 0.390827 10.3654 0.43052 10.2574C0.470212 10.1494 0.5308 10.0504 0.608819 9.96586C0.686838 9.88134 0.780756 9.81303 0.8852 9.76484C0.989643 9.71665 1.10256 9.68953 1.2175 9.68502C1.33243 9.68033 1.44715 9.69835 1.55511 9.73804C1.66307 9.77773 1.76215 9.83832 1.84667 9.91634C1.93119 9.99436 1.9995 10.0883 2.04768 10.1927C2.09587 10.2972 2.12299 10.4101 2.1275 10.525C2.1275 10.6475 2.845 23.79 11.6125 32.575C11.6962 32.6536 11.7629 32.7485 11.8085 32.8538C11.8541 32.9592 11.8777 33.0727 11.8777 33.1875C11.8777 33.3023 11.8541 33.4159 11.8085 33.5212C11.7629 33.6266 11.6962 33.7215 11.6125 33.8C11.5344 33.8841 11.4395 33.9509 11.334 33.9961C11.2285 34.0413 11.1148 34.0639 11 34.0625V34.0625Z" fill="#F38281"/>
<path d="M11 34.0625C10.8852 34.0639 10.7715 34.0413 10.666 33.9961C10.5605 33.9508 10.4656 33.8841 10.3875 33.8C10.3038 33.7214 10.2371 33.6266 10.1915 33.5212C10.1459 33.4159 10.1223 33.3023 10.1223 33.1875C10.1223 33.0727 10.1459 32.9591 10.1915 32.8538C10.2371 32.7484 10.3038 32.6536 10.3875 32.575C19.1375 23.825 19.855 10.6475 19.8725 10.525C19.8663 10.4069 19.8862 10.289 19.9308 10.1795C19.9754 10.07 20.0435 9.97165 20.1304 9.89146C20.2173 9.81128 20.3207 9.75121 20.4334 9.71552C20.5461 9.67984 20.6653 9.66942 20.7825 9.685C21.013 9.69853 21.2294 9.8009 21.386 9.9706C21.5427 10.1403 21.6274 10.3641 21.6225 10.595C21.6225 11.155 20.8875 24.595 11.6125 33.8C11.5344 33.8841 11.4395 33.9508 11.334 33.9961C11.2285 34.0413 11.1148 34.0639 11 34.0625V34.0625Z" fill="#F38281"/>
</svg>
