<svg width="38" height="38" viewBox="0 0 38 38" fill="none" xmlns="http://www.w3.org/2000/svg">
<path d="M19 37.2175C18.367 37.2188 17.7414 37.0816 17.167 36.8156C16.5926 36.5496 16.0834 36.1611 15.675 35.6775L14.135 33.9275C13.8736 33.6202 13.5452 33.3768 13.1751 33.216C12.8051 33.0552 12.4031 32.9813 12 33L9.65501 33.21C9.02268 33.2628 8.38644 33.1774 7.79041 32.9597C7.19438 32.742 6.65284 32.3973 6.20332 31.9495C5.75381 31.5016 5.4071 30.9614 5.18723 30.3662C4.96735 29.7709 4.87958 29.135 4.93001 28.5025L5.00001 26.105C5.03259 25.6901 4.96539 25.2735 4.80403 24.8899C4.64268 24.5063 4.39185 24.1668 4.07251 23.9L2.32251 22.3775C1.83656 21.9685 1.44591 21.4582 1.17791 20.8823C0.909918 20.3064 0.771057 19.6789 0.771057 19.0437C0.771057 18.4086 0.909918 17.7811 1.17791 17.2052C1.44591 16.6293 1.83656 16.119 2.32251 15.71L4.07251 14.17C4.38469 13.9049 4.63099 13.5709 4.79195 13.1943C4.95292 12.8177 5.02414 12.4088 5.00001 12L4.82501 9.6025C4.77224 8.97017 4.85765 8.33392 5.07531 7.7379C5.29297 7.14187 5.63768 6.60032 6.08553 6.15081C6.53337 5.7013 7.07364 5.35459 7.66885 5.13472C8.26407 4.91484 8.89999 4.82707 9.53251 4.8775L11.895 5C12.3041 5.04104 12.7171 4.98475 13.1004 4.83572C13.4836 4.68669 13.8261 4.44915 14.1 4.1425L15.6225 2.3925C16.0306 1.89015 16.5454 1.48502 17.1297 1.20653C17.7139 0.928042 18.3528 0.783189 19 0.782495V0.782495C19.633 0.781178 20.2586 0.918343 20.833 1.18437C21.4074 1.4504 21.9166 1.83886 22.325 2.3225V2.3225L23.865 4.0725C24.1281 4.37782 24.4568 4.6198 24.8264 4.7804C25.1961 4.94099 25.5973 5.01606 26 5L28.345 4.79C28.9773 4.73723 29.6136 4.82264 30.2096 5.0403C30.8056 5.25796 31.3472 5.60267 31.7967 6.05051C32.2462 6.49836 32.5929 7.03862 32.8128 7.63384C33.0327 8.22906 33.1204 8.86497 33.07 9.4975L33 11.895C32.9674 12.3099 33.0346 12.7265 33.196 13.1101C33.3573 13.4937 33.6082 13.8331 33.9275 14.1L35.6775 15.6225C36.1635 16.0315 36.5541 16.5418 36.8221 17.1177C37.0901 17.6936 37.229 18.3211 37.229 18.9562C37.229 19.5914 37.0901 20.2189 36.8221 20.7948C36.5541 21.3707 36.1635 21.881 35.6775 22.29L33.9275 23.83C33.6153 24.0951 33.369 24.4291 33.2081 24.8057C33.0471 25.1823 32.9759 25.5912 33 26L33.21 28.3625C33.2628 28.9948 33.1774 29.6311 32.9597 30.2271C32.742 30.8231 32.3973 31.3647 31.9495 31.8142C31.5016 32.2637 30.9614 32.6104 30.3662 32.8303C29.7709 33.0501 29.135 33.1379 28.5025 33.0875L26.105 33C25.6903 32.9689 25.2741 33.0367 24.8907 33.198C24.5074 33.3592 24.1678 33.6093 23.9 33.9275L22.3775 35.6775C21.97 36.1634 21.4614 36.5545 20.8871 36.8236C20.3128 37.0926 19.6867 37.233 19.0525 37.235L19 37.2175ZM12.175 31.25C12.808 31.2487 13.4336 31.3858 14.008 31.6519C14.5824 31.9179 15.0916 32.3064 15.5 32.79L17.04 34.54C17.2833 34.8325 17.5884 35.0674 17.9334 35.2278C18.2783 35.3882 18.6546 35.47 19.035 35.4675V35.4675C19.417 35.4644 19.794 35.3801 20.141 35.2202C20.488 35.0603 20.797 34.8284 21.0475 34.54L22.57 32.79C23.0112 32.2539 23.5765 31.8334 24.2169 31.565C24.8572 31.2967 25.5534 31.1886 26.245 31.25L28.6075 31.425C28.9859 31.4599 29.3674 31.4105 29.7244 31.2804C30.0815 31.1503 30.4053 30.9427 30.6725 30.6725C30.9411 30.4005 31.1475 30.0734 31.2774 29.7139C31.4073 29.3543 31.4577 28.9709 31.425 28.59L31.25 26.1925C31.186 25.5014 31.2893 24.8051 31.5513 24.1623C31.8133 23.5196 32.2261 22.9494 32.755 22.5L34.505 20.96C34.7994 20.7239 35.0382 20.4259 35.2045 20.0872C35.3709 19.7485 35.4606 19.3773 35.4675 19C35.4644 18.618 35.3801 18.241 35.2202 17.894C35.0603 17.547 34.8284 17.238 34.54 16.9875L32.79 15.465C32.2499 15.0194 31.8271 14.4482 31.5586 13.8015C31.2902 13.1548 31.1842 12.4521 31.25 11.755L31.425 9.3925C31.4587 9.01417 31.4087 8.63308 31.2787 8.27622C31.1486 7.91936 30.9417 7.59547 30.6725 7.3275C30.4012 7.05792 30.0742 6.8509 29.7145 6.72092C29.3548 6.59094 28.971 6.54113 28.59 6.575L26.1925 6.75C25.501 6.81852 24.8033 6.71725 24.1598 6.45498C23.5163 6.19271 22.9466 5.77737 22.5 5.245L20.96 3.495C20.7239 3.20063 20.4259 2.96181 20.0872 2.79547C19.7485 2.62913 19.3773 2.53935 19 2.5325V2.5325C18.618 2.53562 18.241 2.61993 17.894 2.77983C17.5471 2.93974 17.2381 3.17158 16.9875 3.46L15.465 5.21C15.0184 5.74895 14.4471 6.17089 13.8006 6.43923C13.1542 6.70758 12.452 6.81425 11.755 6.75L9.39251 6.575C9.01419 6.54134 8.63309 6.5913 8.27623 6.72134C7.91937 6.85139 7.59548 7.05833 7.32751 7.3275C7.05176 7.6054 6.8412 7.9411 6.71106 8.31034C6.58092 8.67957 6.53445 9.07311 6.57501 9.4625L6.75001 11.8075C6.81402 12.4986 6.71068 13.1949 6.44872 13.8377C6.18676 14.4804 5.77388 15.0506 5.24501 15.5L3.49501 17.04C3.20064 17.2761 2.96182 17.5741 2.79548 17.9128C2.62914 18.2515 2.53936 18.6227 2.53251 19C2.53563 19.382 2.61994 19.759 2.77984 20.106C2.93975 20.4529 3.1716 20.7619 3.46001 21.0125L5.21001 22.535C5.75014 22.9806 6.17291 23.5518 6.44137 24.1985C6.70982 24.8452 6.81579 25.5479 6.75001 26.245L6.57501 28.6075C6.54135 28.9858 6.59131 29.3669 6.72136 29.7238C6.8514 30.0806 7.05834 30.4045 7.32751 30.6725C7.59884 30.9421 7.92581 31.1491 8.28553 31.2791C8.64525 31.4091 9.02903 31.4589 9.41001 31.425L11.8075 31.25H12.175Z" fill="#95E1D3"/>
<path d="M19 25.125C17.3755 25.125 15.8176 24.4797 14.669 23.331C13.5203 22.1824 12.875 20.6245 12.875 19C12.875 17.3755 13.5203 15.8176 14.669 14.669C15.8176 13.5203 17.3755 12.875 19 12.875V12.875C20.6245 12.875 22.1824 13.5203 23.331 14.669C24.4797 15.8176 25.125 17.3755 25.125 19C25.125 20.6245 24.4797 22.1824 23.331 23.331C22.1824 24.4797 20.6245 25.125 19 25.125ZM19 14.625C17.8397 14.625 16.7269 15.0859 15.9064 15.9064C15.0859 16.7269 14.625 17.8397 14.625 19C14.625 20.1603 15.0859 21.2731 15.9064 22.0936C16.7269 22.9141 17.8397 23.375 19 23.375C20.1603 23.375 21.2731 22.9141 22.0936 22.0936C22.9141 21.2731 23.375 20.1603 23.375 19C23.375 17.8397 22.9141 16.7269 22.0936 15.9064C21.2731 15.0859 20.1603 14.625 19 14.625V14.625Z" fill="#95E1D3"/>
</svg>
