<svg width="36" height="36" viewBox="0 0 36 36" fill="none" xmlns="http://www.w3.org/2000/svg">
<path d="M18 23.3725C16.9374 23.3725 15.8987 23.0574 15.0152 22.4671C14.1317 21.8767 13.4431 21.0377 13.0365 20.056C12.6298 19.0743 12.5234 17.994 12.7307 16.9519C12.938 15.9097 13.4497 14.9524 14.2011 14.2011C14.9524 13.4497 15.9097 12.938 16.9519 12.7307C17.994 12.5234 19.0743 12.6298 20.056 13.0365C21.0377 13.4431 21.8767 14.1317 22.4671 15.0152C23.0574 15.8987 23.3725 16.9374 23.3725 18C23.3679 19.4235 22.8004 20.7873 21.7938 21.7938C20.7873 22.8004 19.4235 23.3679 18 23.3725ZM18 14.3775C17.2835 14.3775 16.5832 14.59 15.9875 14.988C15.3917 15.3861 14.9274 15.9518 14.6533 16.6137C14.3791 17.2757 14.3073 18.004 14.4471 18.7067C14.5869 19.4094 14.9319 20.0549 15.4385 20.5615C15.9451 21.0681 16.5906 21.4131 17.2933 21.5529C17.996 21.6927 18.7244 21.6209 19.3863 21.3468C20.0482 21.0726 20.614 20.6083 21.012 20.0126C21.41 19.4168 21.6225 18.7165 21.6225 18C21.6225 17.0393 21.2409 16.1179 20.5615 15.4385C19.8821 14.7592 18.9608 14.3775 18 14.3775Z" fill="#95E1D3"/>
<path d="M18 29.375C15.7502 29.375 13.551 28.7079 11.6804 27.458C9.80979 26.2081 8.35182 24.4315 7.49088 22.353C6.62993 20.2745 6.40467 17.9874 6.84357 15.7809C7.28248 13.5743 8.36584 11.5475 9.95667 9.95667C11.5475 8.36584 13.5743 7.28248 15.7809 6.84357C17.9874 6.40467 20.2745 6.62993 22.353 7.49088C24.4315 8.35182 26.2081 9.80979 27.458 11.6804C28.7079 13.551 29.375 15.7502 29.375 18C29.375 21.0168 28.1766 23.9101 26.0433 26.0433C23.9101 28.1766 21.0168 29.375 18 29.375V29.375ZM18 8.37501C16.0964 8.37501 14.2355 8.9395 12.6526 9.99711C11.0698 11.0547 9.83616 12.5579 9.10766 14.3167C8.37917 16.0754 8.18856 18.0107 8.55995 19.8777C8.93133 21.7448 9.84802 23.4598 11.1941 24.8059C12.5402 26.152 14.2552 27.0687 16.1223 27.4401C17.9893 27.8114 19.9246 27.6208 21.6833 26.8923C23.4421 26.1638 24.9453 24.9302 26.0029 23.3474C27.0605 21.7645 27.625 19.9036 27.625 18C27.6204 15.4487 26.6048 13.0032 24.8008 11.1992C22.9968 9.39518 20.5513 8.37963 18 8.37501Z" fill="#95E1D3"/>
<path d="M18 35.3775C14.5631 35.3775 11.2033 34.3583 8.34558 32.4489C5.48787 30.5394 3.26055 27.8254 1.94529 24.6501C0.630027 21.4748 0.285895 17.9807 0.956409 14.6098C1.62692 11.2389 3.28197 8.14254 5.71226 5.71225C8.14254 3.28197 11.2389 1.62692 14.6098 0.956405C17.9807 0.285891 21.4748 0.630023 24.6501 1.94528C27.8254 3.26055 30.5394 5.48786 32.4489 8.34558C34.3583 11.2033 35.3775 14.5631 35.3775 18C35.3729 22.6074 33.5405 27.0247 30.2826 30.2826C27.0247 33.5405 22.6074 35.3729 18 35.3775V35.3775ZM18 2.3725C14.9092 2.3725 11.8878 3.28904 9.31783 5.00621C6.7479 6.72338 4.74489 9.16406 3.56208 12.0196C2.37927 14.8752 2.06979 18.0173 2.67278 21.0488C3.27577 24.0802 4.76415 26.8648 6.94969 29.0503C9.13524 31.2359 11.9198 32.7242 14.9512 33.3272C17.9827 33.9302 21.1248 33.6207 23.9804 32.4379C26.8359 31.2551 29.2766 29.2521 30.9938 26.6822C32.711 24.1122 33.6275 21.0908 33.6275 18C33.6275 15.9478 33.2233 13.9156 32.4379 12.0196C31.6526 10.1236 30.5015 8.40084 29.0503 6.94969C27.5992 5.49854 25.8764 4.34743 23.9804 3.56207C22.0844 2.77672 20.0522 2.3725 18 2.3725V2.3725Z" fill="#95E1D3"/>
</svg>
