<svg width="50" height="50" viewBox="0 0 50 50" fill="none" xmlns="http://www.w3.org/2000/svg">
<path d="M1.66665 49.7917C1.36487 49.7903 1.07037 49.6989 0.820817 49.5292C0.606868 49.4092 0.427406 49.2361 0.299701 49.0267C0.171996 48.8173 0.100347 48.5785 0.0916499 48.3333V7.5C0.0895648 7.20374 0.177758 6.91388 0.34449 6.669C0.511222 6.42411 0.748584 6.23581 1.02498 6.12916L15.9291 0.295831C16.2692 0.178042 16.6391 0.178042 16.9791 0.295831L31.125 5.8375L48.0125 0.295831C48.2302 0.213018 48.4656 0.188295 48.6958 0.224092C48.9259 0.25989 49.1427 0.354976 49.325 0.499997C49.5096 0.632513 49.6592 0.807981 49.7608 1.01124C49.8624 1.21451 49.9131 1.43946 49.9083 1.66666V42.5C49.9105 42.8043 49.8155 43.1014 49.6371 43.3479C49.4588 43.5945 49.2064 43.7777 48.9166 43.8708L31.4166 49.7042C31.0962 49.82 30.7454 49.82 30.425 49.7042L16.425 44.1917L2.07498 49.7042C1.94309 49.7504 1.8059 49.7798 1.66665 49.7917ZM16.5417 41.0417C16.7238 40.9983 16.9136 40.9983 17.0958 41.0417L30.8333 46.7875L46.9625 41.3333V3.67916L31.5041 8.75416C31.1837 8.87 30.8329 8.87 30.5125 8.75416L16.425 3.24166L3.00832 8.375V46.2917L15.9291 41.3625C16.0718 41.2488 16.2437 41.178 16.425 41.1583L16.5417 41.0417Z" fill="#95E1D3"/>
<path d="M16.425 44.075C16.0382 44.075 15.6673 43.9213 15.3938 43.6479C15.1203 43.3744 14.9667 43.0034 14.9667 42.6167V1.66666C14.9667 1.27989 15.1203 0.908955 15.3938 0.635464C15.6673 0.361974 16.0382 0.208328 16.425 0.208328C16.8118 0.208328 17.1827 0.361974 17.4562 0.635464C17.7297 0.908955 17.8833 1.27989 17.8833 1.66666V42.5C17.8995 42.7011 17.8737 42.9033 17.8077 43.094C17.7417 43.2846 17.6368 43.4594 17.4998 43.6075C17.3627 43.7555 17.1964 43.8735 17.0114 43.954C16.8264 44.0344 16.6267 44.0756 16.425 44.075Z" fill="#95E1D3"/>
<path d="M31.0958 49.7917C30.7091 49.7917 30.3381 49.638 30.0646 49.3645C29.7912 49.091 29.6375 48.7201 29.6375 48.3333V7.5C29.6375 7.11322 29.7912 6.74229 30.0646 6.4688C30.3381 6.19531 30.7091 6.04166 31.0958 6.04166C31.4826 6.04166 31.8536 6.19531 32.127 6.4688C32.4005 6.74229 32.5542 7.11322 32.5542 7.5V48.3333C32.5542 48.7201 32.4005 49.091 32.127 49.3645C31.8536 49.638 31.4826 49.7917 31.0958 49.7917Z" fill="#95E1D3"/>
</svg>
