<svg width="32" height="38" viewBox="0 0 32 38" fill="none" xmlns="http://www.w3.org/2000/svg">
<path d="M16.4167 19C14.6037 19 12.8314 18.4624 11.3239 17.4551C9.81649 16.4479 8.64158 15.0163 7.94778 13.3413C7.25397 11.6663 7.07244 9.82317 7.42614 8.04501C7.77984 6.26685 8.65288 4.6335 9.93486 3.35152C11.2168 2.06954 12.8502 1.1965 14.6283 0.842803C16.4065 0.489105 18.2496 0.670636 19.9246 1.36444C21.5996 2.05824 23.0312 3.23316 24.0385 4.74061C25.0457 6.24806 25.5833 8.02034 25.5833 9.83333C25.5789 12.2631 24.6117 14.5922 22.8936 16.3103C21.1755 18.0284 18.8465 18.9956 16.4167 19ZM16.4167 2.33333C14.9333 2.33333 13.4833 2.7732 12.2499 3.59731C11.0165 4.42142 10.0552 5.59276 9.48757 6.96321C8.91992 8.33365 8.77139 9.84165 9.06078 11.2965C9.35017 12.7514 10.0645 14.0877 11.1134 15.1366C12.1623 16.1855 13.4986 16.8998 14.9535 17.1892C16.4083 17.4786 17.9164 17.3301 19.2868 16.7624C20.6572 16.1948 21.8286 15.2335 22.6527 14.0001C23.4768 12.7667 23.9167 11.3167 23.9167 9.83333C23.9123 7.84556 23.1207 5.94047 21.7151 4.5349C20.3095 3.12933 18.4044 2.33774 16.4167 2.33333V2.33333Z" fill="white"/>
<path d="M1.41668 32.3333C1.19566 32.3333 0.983702 32.2455 0.827421 32.0893C0.671141 31.933 0.583344 31.721 0.583344 31.5C0.587754 27.7441 2.08173 24.1433 4.73754 21.4875C7.39335 18.8317 10.9941 17.3377 14.75 17.3333H18.0833C18.3044 17.3333 18.5163 17.4211 18.6726 17.5774C18.8289 17.7337 18.9167 17.9457 18.9167 18.1667C18.9167 18.3877 18.8289 18.5996 18.6726 18.7559C18.5163 18.9122 18.3044 19 18.0833 19H14.75C11.4348 19 8.25538 20.317 5.91117 22.6612C3.56697 25.0054 2.25001 28.1848 2.25001 31.5C2.25001 31.721 2.16221 31.933 2.00593 32.0893C1.84965 32.2455 1.63769 32.3333 1.41668 32.3333Z" fill="white"/>
<path d="M23.9167 37.3333C23.6957 37.3333 23.4837 37.2455 23.3274 37.0893C23.1711 36.933 23.0833 36.721 23.0833 36.5V23.1667C23.0833 22.9457 23.1711 22.7337 23.3274 22.5774C23.4837 22.4211 23.6957 22.3333 23.9167 22.3333C24.1377 22.3333 24.3497 22.4211 24.5059 22.5774C24.6622 22.7337 24.75 22.9457 24.75 23.1667V36.5C24.75 36.721 24.6622 36.933 24.5059 37.0893C24.3497 37.2455 24.1377 37.3333 23.9167 37.3333Z" fill="white"/>
<path d="M30.5834 30.6667H17.25C17.029 30.6667 16.817 30.5789 16.6608 30.4226C16.5045 30.2663 16.4167 30.0543 16.4167 29.8333C16.4167 29.6123 16.5045 29.4004 16.6608 29.2441C16.817 29.0878 17.029 29 17.25 29H30.5834C30.8044 29 31.0163 29.0878 31.1726 29.2441C31.3289 29.4004 31.4167 29.6123 31.4167 29.8333C31.4167 30.0543 31.3289 30.2663 31.1726 30.4226C31.0163 30.5789 30.8044 30.6667 30.5834 30.6667Z" fill="white"/>
</svg>
