<svg width="56" height="56" viewBox="0 0 56 56" fill="none" xmlns="http://www.w3.org/2000/svg">
<path d="M28 55.7083C22.5198 55.7083 17.1627 54.0833 12.6061 51.0386C8.04946 47.994 4.49802 43.6666 2.40084 38.6035C0.303662 33.5405 -0.245055 27.9693 0.824077 22.5944C1.89321 17.2195 4.53217 12.2823 8.40725 8.40725C12.2823 4.53217 17.2195 1.89321 22.5944 0.824077C27.9693 -0.245055 33.5405 0.303662 38.6035 2.40084C43.6666 4.49802 47.994 8.04946 51.0386 12.6061C54.0833 17.1627 55.7083 22.5198 55.7083 28C55.7006 35.3463 52.7789 42.3896 47.5842 47.5842C42.3896 52.7789 35.3463 55.7006 28 55.7083ZM28 3.20834C23.0967 3.20834 18.3035 4.66234 14.2265 7.38649C10.1495 10.1106 6.97191 13.9826 5.09549 18.5126C3.21907 23.0427 2.72811 28.0275 3.6847 32.8366C4.64129 37.6457 7.00247 42.0632 10.4696 45.5304C13.9368 48.9975 18.3543 51.3587 23.1634 52.3153C27.9725 53.2719 32.9573 52.7809 37.4874 50.9045C42.0174 49.0281 45.8894 45.8505 48.6135 41.7735C51.3377 37.6965 52.7917 32.9033 52.7917 28C52.7839 21.4272 50.1695 15.1258 45.5218 10.4782C40.8742 5.83051 34.5728 3.21605 28 3.20834V3.20834Z" fill="#95E1D3"/>
<path d="M28 43.1958C24.9946 43.1958 22.0566 42.3046 19.5577 40.6349C17.0587 38.9651 15.111 36.5919 13.9609 33.8152C12.8108 31.0385 12.5098 27.9831 13.0962 25.0354C13.6825 22.0877 15.1298 19.3801 17.2549 17.2549C19.3801 15.1297 22.0877 13.6825 25.0354 13.0962C27.9832 12.5098 31.0385 12.8107 33.8152 13.9609C36.5919 15.111 38.9651 17.0587 40.6349 19.5576C42.3046 22.0566 43.1958 24.9945 43.1958 28C43.1881 32.0278 41.5847 35.8885 38.7366 38.7366C35.8885 41.5847 32.0278 43.1881 28 43.1958V43.1958ZM28 15.7208C25.5714 15.7208 23.1974 16.441 21.1781 17.7902C19.1588 19.1395 17.5849 21.0572 16.6555 23.301C15.7262 25.5447 15.483 28.0136 15.9568 30.3955C16.4306 32.7775 17.6001 34.9654 19.3173 36.6827C21.0346 38.4 23.2225 39.5694 25.6045 40.0432C27.9864 40.517 30.4553 40.2739 32.699 39.3445C34.9428 38.4151 36.8605 36.8412 38.2098 34.8219C39.559 32.8026 40.2792 30.4286 40.2792 28C40.2715 24.7457 38.9753 21.6269 36.6742 19.3258C34.3731 17.0247 31.2543 15.7285 28 15.7208V15.7208Z" fill="#95E1D3"/>
<path d="M54.25 29.4583H1.75001C1.36323 29.4583 0.992298 29.3047 0.718808 29.0312C0.445317 28.7577 0.291672 28.3868 0.291672 28C0.291672 27.6132 0.445317 27.2423 0.718808 26.9688C0.992298 26.6953 1.36323 26.5417 1.75001 26.5417H54.25C54.6368 26.5417 55.0077 26.6953 55.2812 26.9688C55.5547 27.2423 55.7083 27.6132 55.7083 28C55.7083 28.3868 55.5547 28.7577 55.2812 29.0312C55.0077 29.3047 54.6368 29.4583 54.25 29.4583Z" fill="#95E1D3"/>
<path d="M28 55.7083C27.6132 55.7083 27.2423 55.5547 26.9688 55.2812C26.6953 55.0077 26.5417 54.6368 26.5417 54.25V1.75001C26.5417 1.36323 26.6953 0.992298 26.9688 0.718808C27.2423 0.445317 27.6132 0.291672 28 0.291672C28.3868 0.291672 28.7577 0.445317 29.0312 0.718808C29.3047 0.992298 29.4583 1.36323 29.4583 1.75001V54.25C29.4583 54.6368 29.3047 55.0077 29.0312 55.2812C28.7577 55.5547 28.3868 55.7083 28 55.7083Z" fill="#95E1D3"/>
</svg>
