<svg width="170" height="170" viewBox="0 0 170 170" fill="none" xmlns="http://www.w3.org/2000/svg">
<rect x="1" y="1" width="168" height="168" stroke="#95E1D3" stroke-width="2"/>
<path d="M89.5 119.333C83.8307 119.338 78.2432 117.981 73.2083 115.375C72.9648 115.249 72.7485 115.077 72.5717 114.867C72.3949 114.658 72.2611 114.415 72.1779 114.154C72.0947 113.893 72.0638 113.618 72.0869 113.345C72.11 113.072 72.1866 112.806 72.3125 112.562C72.4383 112.319 72.6109 112.103 72.8204 111.926C73.0298 111.749 73.272 111.615 73.5332 111.532C73.7944 111.449 74.0694 111.418 74.3425 111.441C74.6156 111.464 74.8815 111.541 75.125 111.667C81.8687 115.097 89.6261 115.972 96.9645 114.129C104.303 112.286 110.727 107.85 115.049 101.64C119.372 95.4303 121.301 87.8659 120.481 80.3442C119.662 72.8225 116.148 65.8515 110.589 60.7187C105.03 55.5859 97.801 52.6379 90.2379 52.4193C82.6747 52.2007 75.288 54.7262 69.4418 59.5294C63.5956 64.3326 59.6849 71.089 58.4319 78.5508C57.1789 86.0126 58.6683 93.6757 62.625 100.125C62.9041 100.602 62.9862 101.169 62.854 101.706C62.7217 102.243 62.3855 102.707 61.9167 103C61.6818 103.144 61.4207 103.239 61.1486 103.281C60.8765 103.324 60.5988 103.311 60.3314 103.245C60.0641 103.18 59.8124 103.061 59.5911 102.898C59.3697 102.734 59.1829 102.528 59.0417 102.292C54.4692 94.9695 52.7284 86.2293 54.1466 77.714C55.5648 69.1987 60.0443 61.4945 66.7431 56.0495C73.4419 50.6045 81.8988 47.7936 90.5242 48.1451C99.1497 48.4966 107.35 51.9863 113.583 57.9583C118.397 62.4202 121.877 68.1321 123.633 74.4564C125.389 80.7807 125.354 87.4687 123.53 93.774C121.706 100.079 118.166 105.754 113.305 110.164C108.444 114.574 102.452 117.547 96 118.75C93.8566 119.149 91.6802 119.344 89.5 119.333V119.333Z" fill="#95E1D3"/>
<path d="M57.1667 121.5C56.359 121.485 55.5675 121.271 54.8622 120.877C54.1569 120.483 53.5595 119.921 53.1228 119.242C52.6862 118.562 52.4238 117.785 52.3587 116.98C52.2937 116.175 52.4281 115.366 52.75 114.625L59.0833 100.375C59.3191 99.87 59.7438 99.4777 60.266 99.2829C60.7882 99.0881 61.366 99.1062 61.875 99.3333C62.3771 99.5607 62.7686 99.9778 62.9638 100.493C63.1591 101.009 63.1421 101.58 62.9167 102.083L56.5417 116.333C56.4605 116.442 56.4167 116.573 56.4167 116.708C56.4167 116.844 56.4605 116.975 56.5417 117.083C56.6327 117.188 56.7522 117.263 56.8855 117.3C57.0188 117.337 57.16 117.334 57.2917 117.292L73.3333 111.583C73.59 111.485 73.8641 111.439 74.139 111.448C74.4138 111.458 74.6839 111.523 74.933 111.64C75.182 111.757 75.4049 111.923 75.5883 112.128C75.7716 112.333 75.9117 112.573 76 112.833C76.1876 113.353 76.1614 113.925 75.927 114.425C75.6926 114.925 75.2692 115.312 74.75 115.5L58.8333 121.208C58.3002 121.406 57.7353 121.505 57.1667 121.5Z" fill="#95E1D3"/>
</svg>
