<svg width="73" height="74" viewBox="0 0 73 74" fill="none" xmlns="http://www.w3.org/2000/svg">
<path d="M37.5 71.3333C31.8307 71.3384 26.2432 69.9808 21.2083 67.375C20.9648 67.2491 20.7485 67.0766 20.5717 66.8671C20.3949 66.6577 20.2611 66.4154 20.1779 66.1543C20.0947 65.8931 20.0638 65.6181 20.0869 65.345C20.11 65.0719 20.1866 64.806 20.3125 64.5625C20.4383 64.319 20.6109 64.1027 20.8204 63.9259C21.0298 63.7491 21.272 63.6153 21.5332 63.5321C21.7944 63.4489 22.0694 63.418 22.3425 63.4411C22.6156 63.4641 22.8815 63.5408 23.125 63.6667C29.8687 67.0975 37.6261 67.9722 44.9645 66.1292C52.3029 64.2863 58.7266 59.8502 63.0492 53.6402C67.3718 47.4303 69.3013 39.8659 68.4814 32.3442C67.6615 24.8225 64.1476 17.8515 58.5886 12.7187C53.0295 7.58586 45.801 4.63793 38.2379 4.41933C30.6747 4.20073 23.288 6.72622 17.4418 11.5294C11.5956 16.3326 7.68486 23.089 6.43188 30.5508C5.1789 38.0126 6.66829 45.6757 10.625 52.125C10.9041 52.6022 10.9862 53.1694 10.854 53.7062C10.7217 54.243 10.3855 54.7071 9.91665 55C9.68175 55.1436 9.42071 55.2393 9.14861 55.2814C8.87651 55.3236 8.59876 55.3113 8.33142 55.2455C8.06407 55.1796 7.81243 55.0614 7.59105 54.8977C7.36967 54.734 7.18294 54.528 7.04165 54.2917C2.46917 46.9695 0.72844 38.2293 2.14663 29.714C3.56482 21.1987 8.04428 13.4945 14.7431 8.04948C21.4419 2.60446 29.8988 -0.206449 38.5242 0.14506C47.1497 0.496569 55.3498 3.98629 61.5833 9.95833C66.3972 14.4202 69.8765 20.1321 71.6329 26.4564C73.3893 32.7807 73.3536 39.4687 71.5299 45.774C69.7062 52.0792 66.1661 57.7536 61.3049 62.1639C56.4436 66.5742 50.4525 69.5468 44 70.75C41.8566 71.1489 39.6802 71.3442 37.5 71.3333V71.3333Z" fill="#95E1D3"/>
<path d="M5.16666 73.5C4.35897 73.4848 3.56747 73.2707 2.86216 72.8768C2.15685 72.483 1.55947 71.9213 1.12283 71.2417C0.686194 70.562 0.423759 69.7852 0.35873 68.98C0.293701 68.1748 0.428084 67.3659 0.749995 66.625L7.08333 52.375C7.31908 51.87 7.74381 51.4777 8.266 51.2829C8.78819 51.0881 9.36603 51.1062 9.87499 51.3333C10.3771 51.5607 10.7686 51.9778 10.9638 52.4932C11.1591 53.0086 11.1421 53.5804 10.9167 54.0833L4.54166 68.3333C4.46052 68.4415 4.41666 68.5731 4.41666 68.7083C4.41666 68.8436 4.46052 68.9752 4.54166 69.0833C4.63268 69.1875 4.7522 69.2627 4.88548 69.2998C5.01876 69.3368 5.15996 69.334 5.29166 69.2917L21.3333 63.5833C21.59 63.4846 21.8641 63.4387 22.139 63.4485C22.4138 63.4582 22.6839 63.5235 22.933 63.6402C23.182 63.7569 23.4049 63.9228 23.5883 64.1278C23.7716 64.3329 23.9117 64.5728 24 64.8333C24.1876 65.3527 24.1614 65.9254 23.927 66.4254C23.6926 66.9254 23.2692 67.312 22.75 67.5L6.83333 73.2083C6.30018 73.4063 5.73535 73.5051 5.16666 73.5Z" fill="#95E1D3"/>
</svg>
